<svg enable-background="new 0 0 126 105" viewBox="0 0 126 105" xmlns="http://www.w3.org/2000/svg"><path d="m63 0c-33.9 0-60.5 43.2-63 79.6 10.6 18.5 36.3 25.4 63 25.4s52.4-6.9 63-25.4c-2.5-36.4-29.1-79.6-63-79.6z" fill="#badcf4"/><path d="m102 45.3c-7.4-9.6-16.9-19.7-22.4-19.7s-20.9 27.2-27.9 27.2c-7.1 0-10.7-12.4-19.4-12.3-11.8 0-23.4 34.7-23.4 34.7s4.8 21.2 54.9 21.2 54.1-20.9 54.1-20.9-5.2-16.4-15.9-30.2z" fill="#70c167"/><path d="m52.5 64.4c-7.8 0-11.8-7.7-13.9-12.4-1.9-4.3-2.3-11-7.8-11.2.5-.2 1.1-.3 1.6-.3 8.7 0 12.3 12.3 19.4 12.3s22.4-27.2 27.9-27.2c1 0 2.2.4 3.5 1-.9-.1-2.1 0-3.1.9-1.9 1.7-18 36.9-27.6 36.9z" fill="#1bad4b"/><g fill="#010101"><path d="m36.5 73c0 3.4 2.8 6.1 6.1 6.1s6.1-2.8 6.1-6.1c0-3.4-2.8-6.1-6.1-6.1s-6.1 2.7-6.1 6.1"/><path d="m77.2 73c0 3.4 2.8 6.1 6.1 6.1s6.1-2.8 6.1-6.1c0-3.4-2.8-6.1-6.1-6.1s-6.1 2.7-6.1 6.1"/><path d="m63.2 89.2c-8.8 0-12.8-6.4-13-6.7-.5-.9-.3-2 .6-2.5s2-.3 2.5.6c.1.2 3.2 4.9 9.8 4.9 6.9 0 9.4-4.8 9.5-4.8.5-.9 1.6-1.2 2.5-.8.9.5 1.2 1.6.8 2.5-.2.3-3.6 6.8-12.7 6.8z"/></g></svg>