<svg enable-background="new 0 0 47.5 47.5" viewBox="0 0 47.5 47.5" xmlns="http://www.w3.org/2000/svg" xmlns:xlink="http://www.w3.org/1999/xlink"><clipPath id="a"><path d="m0 38h38v-38h-38z"/></clipPath><g clip-path="url(#a)" transform="matrix(1.25 0 0 -1.25 0 47.5)"><path d="m0 0s-4 0-4 4v28s0 4 4 4h26c1 0 2-1 2-1l3-3s1-1 1-2v-26s0-4-4-4z" fill="#292f33" transform="translate(5 1)"/><path d="m0 0v1s0 2 2 2h21c2 0 2-2 2-2v-1z" fill="#55acee" transform="translate(6 18)"/><g fill="#e1e8ed"><path d="m0 0v13.021h25v-13s0-2-2-2h-21c-2 0-2 1.979-2 1.979" transform="translate(6 4.9785)"/><path d="m23 24h5v10h-5zm-12 10s0 1 1 1h18c1.048 0 1-1 1-1v-10s0-1-1-1h-18s-1 0-1 1z"/></g></g></svg>