<svg height="18" viewBox="0 0 19 18" width="19" xmlns="http://www.w3.org/2000/svg"><g fill="#9b9b9b" fill-rule="evenodd" transform="translate(1)"><path d="m6.87923437 10.6965c-1.67231249-1.6723125-1.67231249-4.393125 0-6.0654375l3.37500003-3.375c.81-.81 1.8871875-1.2560625 3.033-1.2560625s2.2224375.4460625 3.033 1.2560625c1.6723125 1.6723125 1.6723125 4.393125 0 6.0654375l-1.9621797 1.7150667c-.3571875.3571875-.9354375.3571875-1.292625 0s-.3571875-.9354375 0-1.292625l1.9621797-1.7150667c.959625-.959625.959625-2.5205625 0-3.4801875-.464625-.464625-1.0828125-.7205625-1.740375-.7205625s-1.2751875.2559375-1.740375.7205625l-3.375 3.375c-.959625.959625-.959625 2.5205625 0 3.4801875.3571875.3571875.3571875.9354375 0 1.292625-.1783125.1783125-.4123125.26775-.6463125.26775s-.468-.0894375-.64631253-.26775z"/><path d="m1.25423437 16.4583281c-1.6723125-1.6723125-1.6723125-4.393125 0-6.0654375l1.92449464-1.9026562c.3571875-.3571875.936-.3571875 1.292625 0s.3571875.9354375 0 1.292625l-1.92449464 1.9026562c-.959625.959625-.959625 2.5205625 0 3.4801875.464625.464625 1.0828125.7205625 1.740375.7205625s1.2751875-.2559375 1.740375-.7205625l3.37500003-3.375c.959625-.959625.959625-2.5205625 0-3.4801875-.3571875-.3571875-.3571875-.9354375 0-1.292625.3571875-.35718748.9354375-.35718748 1.292625 0 1.6723125 1.6723125 1.6723125 4.393125 0 6.0654375l-3.375 3.375c-.81000003.81-1.88718753 1.2560625-3.03300003 1.2560625s-2.223-.4460625-3.033-1.2560625z"/></g></svg>