<svg height="50" viewBox="0 0 51 50" width="51" xmlns="http://www.w3.org/2000/svg"><g fill="none" fill-rule="evenodd" transform="matrix(-1 0 0 -1 49.25 49.5)"><g transform="translate(3.880875 1.8295)"><path d="m40.10125 27.22625c-2.06125 1.41375-3.475-.64875-3.475-.64875l-6.56375-9.5725c-.225.3775-.47375.75-.74875 1.1175l9.11 13.28625s1.41375 2.06125-.64875 3.475c-2.06125 1.415-3.475-.6475-3.475-.6475l-8.57-12.49625c-.31875.26125-.64375.52125-.98125.7775l9.93375 14.4875s1.41375 2.06125-.6475 3.475c-2.06125 1.415-3.475-.6475-3.475-.6475l-9.935-14.48625c-.365.225-.72625.41875-1.0875.6225l9.28375 13.54s1.41375 2.06125-.64875 3.475c-2.06125 1.415-3.475-.6475-3.475-.6475l-9.8175-14.31625-.78625-1.1475-.70625-1.03125c6.185-4.24125 6.77375-12.22375 3.24-17.3775-.7075-1.03125-1.7375-.325-1.7375-.325 4.24125 6.18625 2.945 13.1375-3.24125 17.37875l1.8275 9.1275s.68125 2.40625-1.72375 3.0875-3.08625-1.72375-3.08625-1.72375l-2.10625-6.255c-.835-2.48-1.72375-4.95125-2.9-7.2875-3.32125-6.6-1.3375-14.80375 4.92625-19.09875 6.83125-4.68375 16.16875-2.94375 20.85375 3.8875.2475.3625.455.71625.6525 1.07l10.6575 15.425s1.415 2.0625-.64875 3.47625z" fill="#4a4a4a"/><path d="m38.10125 27.22625c-2.06125 1.41375-3.475-.64875-3.475-.64875l-6.56375-9.5725c-.225.3775-.47375.75-.74875 1.1175l9.11 13.28625s1.41375 2.06125-.64875 3.475c-2.06125 1.415-3.475-.6475-3.475-.6475l-8.57-12.49625c-.31875.26125-.64375.52125-.98125.7775l9.93375 14.4875s1.41375 2.06125-.6475 3.475c-2.06125 1.415-3.475-.6475-3.475-.6475l-9.935-14.48625c-.365.225-.72625.41875-1.0875.6225l9.28375 13.54s1.41375 2.06125-.64875 3.475c-2.06125 1.415-3.475-.6475-3.475-.6475l-9.8175-14.31625-.78625-1.1475-.70625-1.03125c6.185-4.24125 6.77375-12.22375 3.24-17.3775-.7075-1.03125-1.7375-.325-1.7375-.325 4.24125 6.18625 2.945 13.1375-3.24125 17.37875l1.8275 9.1275s.68125 2.40625-1.72375 3.0875-3.08625-1.72375-3.08625-1.72375l-2.10625-6.255c-.835-2.48-1.72375-4.95125-2.9-7.2875-3.32125-6.6-1.3375-14.80375 4.92625-19.09875 6.83125-4.68375 16.16875-2.94375 20.85375 3.8875.2475.3625.455.71625.6525 1.07l10.6575 15.425s1.415 2.0625-.64875 3.47625z" fill="#ffd335"/></g><g fill="#9b9b9b"><path d="m2.5 0h-2.5c0 4.79625 3.9025 8.6975 8.6975 8.6975v-2.5c-3.41625 0-6.1975-2.78-6.1975-6.1975" transform="translate(.051875 39.5)"/><path d="m2.5 0h-2.5c0 6.8925 5.6075 12.5 12.5 12.5v-2.5c-5.51375 0-10-4.48625-10-10" transform="translate(2.5 33.25)"/><path d="m0 0v2.5c3.75 0 6.25 2.5 6.25 6.25h2.5c0-5-3.75-8.75-8.75-8.75" transform="translate(40.25 .25)"/><path d="m0 0v2.5c5 0 10.0525 5.0525 10.0525 10.0525h2.5c0-7.5-5.0525-12.5525-12.5525-12.5525" transform="translate(34 2.6975)"/></g></g></svg>